<svg xmlns="http://www.w3.org/2000/svg" xmlns:xlink="http://www.w3.org/1999/xlink" width="500" zoomAndPan="magnify" viewBox="0 0 375 374.999991" height="500" preserveAspectRatio="xMidYMid meet" version="1.2"><defs><clipPath id="043c3645e7"><path d="M 245 86 L 280.359375 86 L 280.359375 196 L 245 196 Z M 245 86 "/></clipPath></defs><g id="5ac4704aa6"><g style="fill:#ffffff;fill-opacity:1;"><g transform="translate(197.982486, 90.183985)"><path style="stroke:none" d="M -103.890625 100.015625 L -32.515625 23.375 L -119.890625 23.375 L -118.484375 18.109375 C -117.304688 12.835938 -114.609375 8.5 -110.390625 5.09375 C -106.171875 1.695312 -101.304688 0 -95.796875 0 L 0 0 C 0 7.5 -1.375 14.765625 -4.125 21.796875 C -6.882812 28.828125 -10.84375 35.097656 -16 40.609375 L -87.71875 117.25 L -23.90625 117.25 C -18.519531 117.25 -13.71875 118.914062 -9.5 122.25 C -5.28125 125.59375 -2.523438 129.898438 -1.234375 135.171875 L 0 140.625 L -119.890625 140.625 C -119.890625 133.125 -118.484375 125.859375 -115.671875 118.828125 C -112.859375 111.796875 -108.929688 105.523438 -103.890625 100.015625 Z M -103.890625 100.015625 "/></g></g><g style="fill:#ffffff;fill-opacity:1;"><g transform="translate(71.427433, 267.637552)"><path style="stroke:none" d="M 1.203125 -20.984375 L 16.484375 -20.984375 L 15.890625 -19.796875 L 6.5 -1.203125 L 16.46875 -1.203125 L 16.46875 0 L 1.203125 0 L 1.796875 -1.203125 L 11.1875 -19.796875 L 1.203125 -19.796875 Z M 1.203125 -20.984375 "/></g></g><g style="fill:#ffffff;fill-opacity:1;"><g transform="translate(95.11518, 267.637552)"><path style="stroke:none" d="M 1.203125 -20.984375 L 14 -20.984375 L 14 -19.796875 L 5.390625 -19.796875 L 5.390625 -11.09375 L 14 -11.09375 L 14 -9.890625 L 5.390625 -9.890625 L 5.390625 -1.203125 L 14 -1.203125 L 14 0 L 1.203125 0 Z M 1.203125 -20.984375 "/></g></g><g style="fill:#ffffff;fill-opacity:1;"><g transform="translate(116.314296, 267.637552)"><path style="stroke:none" d="M 1.203125 -20.984375 L 9.5625 -20.984375 C 11.144531 -20.984375 12.472656 -20.445312 13.546875 -19.375 C 14.648438 -18.289062 15.203125 -16.976562 15.203125 -15.4375 C 15.203125 -14.257812 14.863281 -13.203125 14.1875 -12.265625 C 13.519531 -11.347656 12.648438 -10.675781 11.578125 -10.25 L 16.46875 0 L 15.109375 0 L 10.375 -9.953125 C 10.25 -9.929688 10.125 -9.914062 10 -9.90625 C 9.875 -9.894531 9.726562 -9.890625 9.5625 -9.890625 L 5.390625 -9.890625 L 5.390625 0 L 1.203125 0 Z M 5.390625 -19.796875 L 5.390625 -11.09375 L 9.5625 -11.09375 C 10.757812 -11.09375 11.8125 -11.523438 12.71875 -12.390625 C 13.570312 -13.222656 14 -14.238281 14 -15.4375 C 14 -16.601562 13.582031 -17.601562 12.75 -18.4375 C 11.90625 -19.28125 10.90625 -19.734375 9.75 -19.796875 Z M 5.390625 -19.796875 "/></g></g><g style="fill:#ffffff;fill-opacity:1;"><g transform="translate(139.942087, 267.637552)"><path style="stroke:none" d="M 15.5625 -19.578125 C 17.039062 -18.640625 18.203125 -17.359375 19.046875 -15.734375 C 19.484375 -14.941406 19.800781 -14.109375 20 -13.234375 C 20.195312 -12.367188 20.296875 -11.457031 20.296875 -10.5 C 20.296875 -8.570312 19.867188 -6.8125 19.015625 -5.21875 C 18.191406 -3.632812 17.03125 -2.363281 15.53125 -1.40625 C 14.050781 -0.46875 12.453125 0 10.734375 0 C 9.054688 0 7.457031 -0.46875 5.9375 -1.40625 C 4.476562 -2.363281 3.316406 -3.644531 2.453125 -5.25 C 1.617188 -6.863281 1.203125 -8.613281 1.203125 -10.5 C 1.203125 -11.457031 1.3125 -12.375 1.53125 -13.25 C 1.75 -14.132812 2.066406 -14.972656 2.484375 -15.765625 C 3.367188 -17.390625 4.53125 -18.660156 5.96875 -19.578125 C 7.425781 -20.515625 9.023438 -20.984375 10.765625 -20.984375 C 12.523438 -20.984375 14.125 -20.515625 15.5625 -19.578125 Z M 10.734375 -19.796875 C 9.929688 -19.796875 8.992188 -19.582031 7.921875 -19.15625 C 7.398438 -18.957031 6.929688 -18.726562 6.515625 -18.46875 C 6.109375 -18.207031 5.734375 -17.925781 5.390625 -17.625 L 5.390625 -3.359375 C 6.054688 -2.753906 6.910156 -2.242188 7.953125 -1.828125 C 9.023438 -1.410156 9.953125 -1.203125 10.734375 -1.203125 C 13.054688 -1.203125 15.035156 -2.109375 16.671875 -3.921875 C 18.285156 -5.722656 19.09375 -7.914062 19.09375 -10.5 C 19.09375 -13.09375 18.273438 -15.28125 16.640625 -17.0625 C 15.023438 -18.882812 13.054688 -19.796875 10.734375 -19.796875 Z M 10.734375 -19.796875 "/></g></g><g style="fill:#ffffff;fill-opacity:1;"><g transform="translate(167.407789, 267.637552)"><path style="stroke:none" d=""/></g></g><g style="fill:#ffffff;fill-opacity:1;"><g transform="translate(182.400275, 267.637552)"><path style="stroke:none" d="M 1.203125 -20.984375 L 5.390625 -20.984375 L 5.390625 -11.09375 L 15.265625 -11.09375 L 15.265625 -20.984375 L 16.46875 -20.984375 L 16.46875 0 L 15.265625 0 L 15.265625 -9.890625 L 5.390625 -9.890625 L 5.390625 0 L 1.203125 0 Z M 1.203125 -20.984375 "/></g></g><g style="fill:#ffffff;fill-opacity:1;"><g transform="translate(206.028066, 267.637552)"><path style="stroke:none" d="M 1.203125 -20.984375 L 5.390625 -20.984375 L 5.390625 -1.984375 C 6.472656 -1.460938 7.613281 -1.203125 8.8125 -1.203125 C 10.570312 -1.203125 12.09375 -1.703125 13.375 -2.703125 C 14.632812 -3.722656 15.265625 -4.921875 15.265625 -6.296875 L 15.265625 -20.984375 L 16.46875 -20.984375 L 16.46875 -6.265625 C 16.46875 -4.585938 15.707031 -3.109375 14.1875 -1.828125 C 12.707031 -0.609375 10.914062 0 8.8125 0 C 6.757812 0 4.972656 -0.609375 3.453125 -1.828125 C 1.972656 -3.066406 1.222656 -4.546875 1.203125 -6.265625 Z M 1.203125 -20.984375 "/></g></g><g style="fill:#ffffff;fill-opacity:1;"><g transform="translate(229.655857, 267.637552)"><path style="stroke:none" d="M 1.203125 -20.984375 L 5.390625 -20.984375 L 12.234375 -7.796875 L 19.09375 -20.984375 L 20.296875 -20.984375 L 20.296875 0 L 19.09375 0 L 19.09375 -18.375 L 12.921875 -6.484375 L 11.578125 -6.484375 L 5.390625 -18.375 L 5.390625 0 L 1.203125 0 Z M 1.203125 -20.984375 "/></g></g><g style="fill:#ffffff;fill-opacity:1;"><g transform="translate(257.121559, 267.637552)"><path style="stroke:none" d="M 8.515625 -20.984375 L 12.984375 -20.984375 L 20.296875 0 L 19.015625 0 L 17.296875 -4.921875 L 7.375 -4.921875 L 5.640625 0 L 1.203125 0 Z M 12.328125 -19.15625 L 7.765625 -6.109375 L 16.875 -6.109375 Z M 12.328125 -19.15625 "/></g></g><g style="fill:#ffffff;fill-opacity:1;"><g transform="translate(284.58726, 267.637552)"><path style="stroke:none" d="M 1.203125 -20.984375 L 5.390625 -20.984375 L 16.578125 -2.34375 L 16.578125 -20.984375 L 17.78125 -20.984375 L 17.78125 0 L 16.578125 0 L 5.375 -18.65625 L 5.390625 0 L 1.203125 0 Z M 1.203125 -20.984375 "/></g></g><path style=" stroke:none;fill-rule:evenodd;fill:#ff7621;fill-opacity:1;" d="M 208.261719 102.101562 C 208.261719 101.574219 208.292969 101.046875 208.347656 100.523438 C 208.40625 100 208.488281 99.476562 208.601562 98.960938 C 208.714844 98.445312 208.851562 97.9375 209.019531 97.4375 C 209.183594 96.933594 209.378906 96.445312 209.597656 95.964844 C 209.816406 95.484375 210.058594 95.015625 210.328125 94.558594 C 210.59375 94.105469 210.886719 93.667969 211.203125 93.242188 C 211.515625 92.820312 211.855469 92.414062 212.210938 92.027344 C 212.570312 91.636719 212.949219 91.269531 213.347656 90.921875 C 213.746094 90.574219 214.160156 90.25 214.589844 89.949219 C 215.023438 89.644531 215.472656 89.363281 215.933594 89.109375 C 216.394531 88.855469 216.871094 88.625 217.355469 88.417969 C 217.84375 88.214844 218.339844 88.035156 218.84375 87.882812 C 219.351562 87.730469 219.863281 87.605469 220.382812 87.507812 C 220.898438 87.410156 221.421875 87.339844 221.949219 87.296875 C 222.476562 87.257812 223.003906 87.242188 223.53125 87.257812 C 224.058594 87.269531 224.582031 87.3125 225.105469 87.382812 C 225.628906 87.453125 226.148438 87.550781 226.660156 87.675781 C 227.175781 87.804688 227.679688 87.957031 228.175781 88.132812 C 228.671875 88.3125 229.160156 88.519531 229.632812 88.75 C 230.109375 88.980469 230.570312 89.238281 231.015625 89.515625 C 231.464844 89.796875 231.894531 90.101562 232.3125 90.425781 C 232.726562 90.753906 233.121094 91.101562 233.5 91.46875 C 233.878906 91.835938 234.238281 92.222656 234.574219 92.628906 C 234.910156 93.035156 235.226562 93.460938 235.515625 93.898438 C 235.808594 94.339844 236.078125 94.792969 236.320312 95.261719 C 236.5625 95.730469 236.78125 96.210938 236.972656 96.703125 C 237.167969 97.195312 237.332031 97.695312 237.472656 98.207031 C 237.609375 98.714844 237.722656 99.230469 237.804688 99.75 C 237.890625 100.273438 237.945312 100.796875 237.972656 101.324219 C 238.003906 101.851562 238.003906 102.378906 237.976562 102.90625 C 237.945312 103.433594 237.890625 103.957031 237.808594 104.480469 C 237.722656 105 237.613281 105.515625 237.472656 106.023438 C 237.335938 106.535156 237.167969 107.035156 236.976562 107.527344 C 236.785156 108.019531 236.566406 108.5 236.324219 108.96875 C 236.082031 109.4375 235.8125 109.890625 235.519531 110.332031 C 235.230469 110.769531 234.914062 111.195312 234.578125 111.601562 C 234.242188 112.007812 233.882812 112.394531 233.507812 112.765625 C 233.128906 113.132812 232.730469 113.480469 232.316406 113.804688 C 231.902344 114.132812 231.46875 114.4375 231.023438 114.714844 C 230.574219 114.996094 230.113281 115.253906 229.640625 115.484375 C 229.164062 115.714844 228.679688 115.921875 228.183594 116.101562 C 227.6875 116.28125 227.179688 116.433594 226.667969 116.558594 C 226.15625 116.683594 225.636719 116.78125 225.113281 116.851562 C 224.589844 116.921875 224.066406 116.964844 223.539062 116.980469 C 223.007812 116.996094 222.480469 116.980469 221.957031 116.9375 C 221.429688 116.898438 220.90625 116.828125 220.386719 116.730469 C 219.867188 116.632812 219.355469 116.507812 218.851562 116.355469 C 218.34375 116.203125 217.847656 116.027344 217.363281 115.820312 C 216.691406 115.539062 216.042969 115.207031 215.421875 114.828125 C 214.800781 114.453125 214.207031 114.03125 213.648438 113.566406 C 213.085938 113.101562 212.5625 112.597656 212.078125 112.058594 C 211.589844 111.515625 211.144531 110.941406 210.742188 110.335938 C 210.339844 109.726562 209.984375 109.09375 209.675781 108.4375 C 209.367188 107.777344 209.105469 107.097656 208.894531 106.402344 C 208.683594 105.703125 208.527344 104.996094 208.421875 104.277344 C 208.316406 103.554688 208.261719 102.832031 208.261719 102.101562 M 228.9375 102.101562 C 228.9375 101.722656 228.898438 101.347656 228.824219 100.972656 C 228.75 100.601562 228.640625 100.238281 228.496094 99.886719 C 228.351562 99.535156 228.171875 99.203125 227.960938 98.886719 C 227.75 98.570312 227.507812 98.277344 227.242188 98.011719 C 226.972656 97.742188 226.679688 97.5 226.363281 97.289062 C 226.046875 97.078125 225.714844 96.902344 225.363281 96.753906 C 225.011719 96.609375 224.648438 96.5 224.277344 96.425781 C 223.902344 96.351562 223.527344 96.3125 223.148438 96.3125 C 222.769531 96.3125 222.390625 96.351562 222.019531 96.425781 C 221.644531 96.5 221.285156 96.609375 220.933594 96.753906 C 220.582031 96.902344 220.246094 97.078125 219.933594 97.289062 C 219.617188 97.5 219.324219 97.742188 219.054688 98.011719 C 218.785156 98.277344 218.546875 98.570312 218.335938 98.886719 C 218.125 99.203125 217.945312 99.535156 217.800781 99.886719 C 217.65625 100.238281 217.542969 100.601562 217.46875 100.972656 C 217.394531 101.347656 217.359375 101.722656 217.359375 102.101562 C 217.359375 102.484375 217.394531 102.859375 217.46875 103.230469 C 217.542969 103.605469 217.65625 103.96875 217.800781 104.316406 C 217.945312 104.667969 218.125 105.003906 218.335938 105.320312 C 218.546875 105.636719 218.785156 105.925781 219.054688 106.195312 C 219.324219 106.464844 219.617188 106.703125 219.933594 106.914062 C 220.246094 107.128906 220.582031 107.304688 220.933594 107.449219 C 221.285156 107.597656 221.644531 107.707031 222.019531 107.78125 C 222.390625 107.855469 222.769531 107.890625 223.148438 107.890625 C 223.527344 107.890625 223.90625 107.855469 224.277344 107.78125 C 224.648438 107.707031 225.011719 107.597656 225.363281 107.453125 C 225.714844 107.304688 226.046875 107.128906 226.363281 106.917969 C 226.679688 106.707031 226.972656 106.464844 227.242188 106.195312 C 227.511719 105.929688 227.75 105.636719 227.960938 105.320312 C 228.171875 105.003906 228.351562 104.667969 228.496094 104.320312 C 228.640625 103.96875 228.75 103.605469 228.824219 103.230469 C 228.898438 102.859375 228.9375 102.484375 228.9375 102.101562 Z M 228.9375 102.101562 "/><path style=" stroke:none;fill-rule:evenodd;fill:#ff7621;fill-opacity:1;" d="M 238.035156 140.992188 L 238.035156 141.039062 C 238.035156 141.335938 238.066406 141.632812 238.125 141.925781 C 238.183594 142.21875 238.269531 142.503906 238.382812 142.777344 C 238.496094 143.054688 238.636719 143.316406 238.804688 143.566406 C 238.96875 143.8125 239.15625 144.042969 239.367188 144.253906 C 239.582031 144.464844 239.808594 144.652344 240.058594 144.820312 C 240.304688 144.984375 240.570312 145.125 240.84375 145.242188 C 241.121094 145.355469 241.40625 145.441406 241.699219 145.5 C 241.992188 145.558594 242.285156 145.585938 242.585938 145.585938 L 273.777344 145.585938 C 274.070312 145.59375 274.359375 145.628906 274.648438 145.695312 C 274.933594 145.757812 275.210938 145.847656 275.480469 145.96875 C 275.75 146.085938 276.007812 146.226562 276.246094 146.394531 C 276.488281 146.5625 276.710938 146.75 276.917969 146.960938 C 277.121094 147.171875 277.304688 147.398438 277.464844 147.644531 C 277.628906 147.890625 277.761719 148.152344 277.875 148.421875 C 277.984375 148.695312 278.066406 148.976562 278.125 149.261719 C 278.179688 149.550781 278.207031 149.84375 278.207031 150.136719 C 278.207031 150.429688 278.179688 150.722656 278.125 151.011719 C 278.066406 151.296875 277.984375 151.578125 277.875 151.851562 C 277.761719 152.125 277.628906 152.382812 277.464844 152.628906 C 277.304688 152.875 277.121094 153.101562 276.917969 153.3125 C 276.710938 153.523438 276.488281 153.710938 276.246094 153.878906 C 276.007812 154.046875 275.75 154.1875 275.480469 154.308594 C 275.210938 154.425781 274.933594 154.515625 274.648438 154.578125 C 274.359375 154.644531 274.070312 154.679688 273.777344 154.6875 L 238.035156 154.6875 C 237.4375 154.6875 236.84375 154.628906 236.257812 154.511719 C 235.671875 154.394531 235.105469 154.222656 234.550781 153.992188 C 234 153.765625 233.476562 153.484375 232.980469 153.152344 C 232.484375 152.820312 232.023438 152.441406 231.601562 152.019531 C 231.179688 151.597656 230.800781 151.136719 230.46875 150.640625 C 230.136719 150.144531 229.855469 149.621094 229.628906 149.070312 C 229.398438 148.515625 229.226562 147.949219 229.109375 147.363281 C 228.996094 146.777344 228.9375 146.183594 228.9375 145.585938 L 228.9375 140.992188 C 228.925781 140.617188 228.882812 140.246094 228.800781 139.878906 C 228.722656 139.515625 228.605469 139.160156 228.457031 138.816406 C 228.308594 138.472656 228.128906 138.148438 227.914062 137.839844 C 227.703125 137.53125 227.460938 137.246094 227.195312 136.984375 C 226.925781 136.722656 226.636719 136.488281 226.324219 136.285156 C 226.011719 136.078125 225.679688 135.90625 225.332031 135.765625 C 224.988281 135.625 224.628906 135.515625 224.261719 135.445312 C 223.894531 135.375 223.523438 135.335938 223.148438 135.335938 C 222.773438 135.335938 222.402344 135.375 222.035156 135.445312 C 221.667969 135.515625 221.3125 135.625 220.964844 135.765625 C 220.617188 135.90625 220.289062 136.078125 219.976562 136.285156 C 219.664062 136.488281 219.371094 136.722656 219.105469 136.984375 C 218.835938 137.246094 218.597656 137.53125 218.382812 137.839844 C 218.171875 138.148438 217.992188 138.472656 217.839844 138.816406 C 217.691406 139.160156 217.578125 139.515625 217.496094 139.878906 C 217.414062 140.246094 217.371094 140.617188 217.363281 140.992188 L 217.363281 218.804688 C 217.371094 219.179688 217.414062 219.546875 217.496094 219.914062 C 217.578125 220.28125 217.691406 220.632812 217.839844 220.976562 C 217.992188 221.320312 218.171875 221.648438 218.382812 221.953125 C 218.597656 222.261719 218.835938 222.546875 219.105469 222.808594 C 219.371094 223.070312 219.664062 223.304688 219.976562 223.511719 C 220.289062 223.714844 220.617188 223.886719 220.964844 224.03125 C 221.3125 224.171875 221.667969 224.277344 222.035156 224.347656 C 222.402344 224.421875 222.773438 224.457031 223.148438 224.457031 C 223.523438 224.457031 223.894531 224.421875 224.261719 224.347656 C 224.628906 224.277344 224.988281 224.171875 225.332031 224.03125 C 225.679688 223.886719 226.011719 223.714844 226.324219 223.511719 C 226.636719 223.304688 226.925781 223.070312 227.195312 222.808594 C 227.460938 222.546875 227.703125 222.261719 227.914062 221.953125 C 228.128906 221.648438 228.308594 221.320312 228.457031 220.976562 C 228.605469 220.632812 228.722656 220.28125 228.800781 219.914062 C 228.882812 219.546875 228.925781 219.179688 228.9375 218.804688 L 228.9375 170.796875 C 228.945312 170.503906 228.980469 170.214844 229.042969 169.925781 C 229.109375 169.640625 229.199219 169.363281 229.316406 169.09375 C 229.433594 168.824219 229.578125 168.566406 229.742188 168.324219 C 229.910156 168.085938 230.101562 167.859375 230.308594 167.65625 C 230.519531 167.453125 230.75 167.269531 230.996094 167.109375 C 231.242188 166.945312 231.5 166.8125 231.773438 166.699219 C 232.042969 166.589844 232.324219 166.507812 232.613281 166.449219 C 232.902344 166.394531 233.191406 166.363281 233.488281 166.363281 C 233.78125 166.363281 234.070312 166.394531 234.359375 166.449219 C 234.648438 166.507812 234.929688 166.589844 235.199219 166.699219 C 235.472656 166.8125 235.730469 166.945312 235.976562 167.109375 C 236.222656 167.269531 236.453125 167.453125 236.664062 167.65625 C 236.871094 167.859375 237.0625 168.085938 237.230469 168.324219 C 237.394531 168.566406 237.539062 168.824219 237.65625 169.09375 C 237.773438 169.363281 237.863281 169.640625 237.929688 169.925781 C 237.992188 170.214844 238.027344 170.503906 238.035156 170.796875 L 238.035156 218.804688 C 238.035156 219.78125 237.941406 220.75 237.75 221.707031 C 237.558594 222.667969 237.277344 223.597656 236.902344 224.5 C 236.53125 225.40625 236.070312 226.261719 235.527344 227.074219 C 234.984375 227.886719 234.367188 228.640625 233.675781 229.332031 C 232.984375 230.023438 232.234375 230.640625 231.421875 231.183594 C 230.609375 231.726562 229.75 232.183594 228.847656 232.558594 C 227.941406 232.933594 227.011719 233.214844 226.054688 233.40625 C 225.09375 233.597656 224.125 233.691406 223.148438 233.691406 C 222.171875 233.691406 221.203125 233.597656 220.246094 233.40625 C 219.285156 233.214844 218.355469 232.933594 217.453125 232.558594 C 216.550781 232.183594 215.691406 231.726562 214.878906 231.183594 C 214.066406 230.640625 213.3125 230.023438 212.621094 229.332031 C 211.929688 228.640625 211.3125 227.886719 210.769531 227.074219 C 210.226562 226.261719 209.769531 225.40625 209.394531 224.5 C 209.019531 223.597656 208.738281 222.667969 208.546875 221.707031 C 208.355469 220.75 208.261719 219.78125 208.261719 218.804688 L 208.261719 140.992188 C 208.246094 140.003906 208.332031 139.027344 208.511719 138.054688 C 208.691406 137.085938 208.964844 136.140625 209.332031 135.226562 C 209.699219 134.3125 210.152344 133.441406 210.695312 132.613281 C 211.234375 131.789062 211.851562 131.027344 212.542969 130.324219 C 213.238281 129.621094 213.992188 128.992188 214.808594 128.4375 C 215.628906 127.886719 216.492188 127.421875 217.402344 127.039062 C 218.3125 126.65625 219.25 126.371094 220.21875 126.175781 C 221.183594 125.980469 222.164062 125.886719 223.148438 125.886719 C 224.136719 125.886719 225.113281 125.980469 226.082031 126.175781 C 227.046875 126.371094 227.988281 126.65625 228.898438 127.039062 C 229.808594 127.421875 230.671875 127.886719 231.488281 128.4375 C 232.304688 128.992188 233.0625 129.621094 233.753906 130.324219 C 234.445312 131.027344 235.0625 131.789062 235.605469 132.613281 C 236.144531 133.441406 236.597656 134.3125 236.964844 135.226562 C 237.332031 136.140625 237.609375 137.085938 237.789062 138.054688 C 237.96875 139.027344 238.050781 140.003906 238.035156 140.992188 "/><g clip-rule="nonzero" clip-path="url(#043c3645e7)"><path style=" stroke:none;fill-rule:evenodd;fill:#ffffff;fill-opacity:1;" d="M 285.644531 179.941406 L 285.644531 179.898438 C 285.644531 179.597656 285.617188 179.304688 285.558594 179.011719 C 285.5 178.71875 285.414062 178.433594 285.300781 178.15625 C 285.183594 177.878906 285.042969 177.617188 284.878906 177.371094 C 284.710938 177.121094 284.523438 176.890625 284.3125 176.679688 C 284.101562 176.46875 283.871094 176.28125 283.625 176.117188 C 283.375 175.949219 283.113281 175.808594 282.835938 175.695312 C 282.5625 175.582031 282.277344 175.496094 281.984375 175.4375 C 281.691406 175.378906 281.394531 175.347656 281.097656 175.347656 L 249.90625 175.347656 C 249.601562 175.355469 249.300781 175.335938 249 175.28125 C 248.699219 175.230469 248.410156 175.148438 248.125 175.039062 C 247.84375 174.925781 247.574219 174.789062 247.320312 174.625 C 247.0625 174.460938 246.828125 174.269531 246.609375 174.058594 C 246.390625 173.847656 246.195312 173.617188 246.023438 173.363281 C 245.855469 173.113281 245.710938 172.847656 245.589844 172.566406 C 245.472656 172.289062 245.382812 172 245.324219 171.703125 C 245.261719 171.402344 245.234375 171.101562 245.234375 170.796875 C 245.234375 170.496094 245.261719 170.195312 245.324219 169.894531 C 245.382812 169.597656 245.472656 169.308594 245.589844 169.027344 C 245.710938 168.75 245.855469 168.484375 246.023438 168.234375 C 246.195312 167.980469 246.390625 167.75 246.609375 167.539062 C 246.828125 167.324219 247.0625 167.136719 247.320312 166.972656 C 247.574219 166.808594 247.84375 166.671875 248.125 166.558594 C 248.410156 166.449219 248.699219 166.367188 249 166.316406 C 249.300781 166.261719 249.601562 166.242188 249.90625 166.25 L 285.648438 166.25 C 286.246094 166.25 286.835938 166.308594 287.421875 166.421875 C 288.011719 166.539062 288.578125 166.710938 289.132812 166.941406 C 289.683594 167.167969 290.207031 167.449219 290.703125 167.78125 C 291.199219 168.113281 291.660156 168.492188 292.082031 168.914062 C 292.503906 169.335938 292.882812 169.796875 293.214844 170.292969 C 293.546875 170.789062 293.828125 171.3125 294.054688 171.867188 C 294.285156 172.417969 294.457031 172.988281 294.574219 173.574219 C 294.691406 174.160156 294.75 174.75 294.75 175.347656 L 294.75 179.945312 C 294.757812 180.320312 294.800781 180.6875 294.882812 181.054688 C 294.964844 181.421875 295.078125 181.773438 295.226562 182.117188 C 295.375 182.460938 295.558594 182.789062 295.769531 183.09375 C 295.984375 183.402344 296.222656 183.6875 296.492188 183.949219 C 296.757812 184.210938 297.050781 184.445312 297.363281 184.652344 C 297.675781 184.855469 298.003906 185.027344 298.351562 185.171875 C 298.699219 185.3125 299.054688 185.417969 299.421875 185.492188 C 299.789062 185.5625 300.160156 185.597656 300.535156 185.597656 C 300.910156 185.597656 301.28125 185.5625 301.648438 185.492188 C 302.015625 185.417969 302.371094 185.3125 302.71875 185.171875 C 303.066406 185.027344 303.394531 184.855469 303.710938 184.652344 C 304.023438 184.445312 304.3125 184.210938 304.582031 183.949219 C 304.847656 183.6875 305.089844 183.402344 305.300781 183.09375 C 305.515625 182.789062 305.695312 182.460938 305.84375 182.117188 C 305.992188 181.773438 306.109375 181.421875 306.1875 181.054688 C 306.269531 180.6875 306.3125 180.320312 306.324219 179.945312 L 306.324219 102.101562 C 306.3125 101.730469 306.269531 101.359375 306.1875 100.992188 C 306.109375 100.628906 305.992188 100.273438 305.84375 99.929688 C 305.695312 99.585938 305.515625 99.261719 305.300781 98.953125 C 305.089844 98.644531 304.847656 98.359375 304.582031 98.097656 C 304.3125 97.835938 304.023438 97.601562 303.710938 97.398438 C 303.394531 97.191406 303.066406 97.019531 302.71875 96.878906 C 302.371094 96.734375 302.015625 96.628906 301.648438 96.558594 C 301.28125 96.484375 300.910156 96.449219 300.535156 96.449219 C 300.160156 96.449219 299.789062 96.484375 299.421875 96.558594 C 299.054688 96.628906 298.699219 96.734375 298.351562 96.878906 C 298.003906 97.019531 297.675781 97.191406 297.363281 97.398438 C 297.050781 97.601562 296.757812 97.835938 296.492188 98.097656 C 296.222656 98.359375 295.984375 98.644531 295.769531 98.953125 C 295.558594 99.261719 295.375 99.585938 295.226562 99.929688 C 295.078125 100.273438 294.964844 100.628906 294.882812 100.992188 C 294.800781 101.359375 294.757812 101.730469 294.75 102.101562 L 294.75 150.121094 C 294.75 150.417969 294.71875 150.714844 294.660156 151.007812 C 294.601562 151.300781 294.515625 151.585938 294.402344 151.859375 C 294.289062 152.136719 294.148438 152.398438 293.980469 152.648438 C 293.816406 152.894531 293.628906 153.125 293.417969 153.335938 C 293.207031 153.546875 292.976562 153.734375 292.726562 153.902344 C 292.480469 154.066406 292.214844 154.207031 291.941406 154.320312 C 291.664062 154.4375 291.378906 154.523438 291.085938 154.582031 C 290.792969 154.640625 290.5 154.667969 290.199219 154.667969 C 289.902344 154.667969 289.605469 154.640625 289.3125 154.582031 C 289.019531 154.523438 288.734375 154.4375 288.460938 154.320312 C 288.183594 154.207031 287.921875 154.066406 287.671875 153.902344 C 287.425781 153.734375 287.195312 153.546875 286.984375 153.335938 C 286.773438 153.125 286.585938 152.894531 286.417969 152.648438 C 286.253906 152.398438 286.113281 152.136719 285.996094 151.859375 C 285.882812 151.585938 285.796875 151.300781 285.738281 151.007812 C 285.679688 150.714844 285.652344 150.417969 285.652344 150.121094 L 285.652344 102.101562 C 285.636719 101.117188 285.71875 100.136719 285.898438 99.167969 C 286.082031 98.199219 286.355469 97.253906 286.722656 96.339844 C 287.089844 95.421875 287.542969 94.550781 288.085938 93.726562 C 288.625 92.902344 289.242188 92.136719 289.933594 91.433594 C 290.628906 90.730469 291.382812 90.105469 292.199219 89.550781 C 293.015625 89 293.878906 88.53125 294.792969 88.152344 C 295.703125 87.769531 296.640625 87.484375 297.609375 87.289062 C 298.574219 87.09375 299.550781 86.996094 300.539062 86.996094 C 301.527344 86.996094 302.503906 87.09375 303.46875 87.289062 C 304.4375 87.484375 305.375 87.769531 306.285156 88.152344 C 307.195312 88.53125 308.0625 89 308.878906 89.550781 C 309.695312 90.105469 310.449219 90.730469 311.144531 91.433594 C 311.835938 92.136719 312.453125 92.902344 312.992188 93.726562 C 313.535156 94.550781 313.988281 95.421875 314.355469 96.339844 C 314.722656 97.253906 314.996094 98.199219 315.175781 99.167969 C 315.359375 100.136719 315.441406 101.117188 315.425781 102.101562 L 315.425781 179.941406 C 315.441406 180.929688 315.359375 181.90625 315.175781 182.875 C 314.996094 183.847656 314.722656 184.789062 314.355469 185.707031 C 313.988281 186.621094 313.535156 187.492188 312.992188 188.316406 C 312.453125 189.144531 311.835938 189.90625 311.144531 190.609375 C 310.449219 191.3125 309.695312 191.941406 308.878906 192.492188 C 308.0625 193.046875 307.195312 193.511719 306.285156 193.894531 C 305.375 194.273438 304.4375 194.5625 303.46875 194.757812 C 302.503906 194.949219 301.527344 195.046875 300.539062 195.046875 C 299.550781 195.046875 298.574219 194.949219 297.609375 194.757812 C 296.640625 194.5625 295.703125 194.273438 294.792969 193.894531 C 293.878906 193.511719 293.015625 193.046875 292.199219 192.492188 C 291.382812 191.941406 290.628906 191.3125 289.933594 190.609375 C 289.242188 189.90625 288.625 189.144531 288.085938 188.316406 C 287.542969 187.492188 287.089844 186.621094 286.722656 185.707031 C 286.355469 184.789062 286.082031 183.847656 285.898438 182.875 C 285.71875 181.90625 285.636719 180.929688 285.652344 179.941406 "/></g><g style="fill:#ffffff;fill-opacity:1;"><g transform="translate(297.850654, 91.208376)"><path style="stroke:none" d="M -23.4375 141 L -23.4375 23.96875 C -23.4375 18.5625 -21.757812 13.742188 -18.40625 9.515625 C -15.0625 5.285156 -10.75 2.523438 -5.46875 1.234375 L 0 0 L 0 117.03125 C 0 122.4375 -1.703125 127.253906 -5.109375 131.484375 C -8.515625 135.710938 -12.863281 138.472656 -18.15625 139.765625 Z M -23.4375 141 "/></g></g></g></svg>